#!OML:ASF F:\VICON\USERDATA\INSTALL\rory3\rory3.ASF
:FULLY-SPECIFIED
:DEGREES
2559
root -0.0401888 16.6121 -1.57702 2.7805 -17.6725 -8.22041
lowerback 11.6685 -1.42765 -6.35333
upperback 9.64244 -2.42849 -4.28557
thorax 3.70731 -1.46352 -0.737969
lowerneck 10.9114 -15.9401 -30.2795
upperneck -14.5775 -23.7674 26.9615
head 1.16386 -12.4003 12.3532
rclavicle 4.77083e-015 -6.36111e-015
rhumerus 1.23028 20.7331 -91.2011
rradius 135.693
rwrist 28.3645
rhand 22.2074 7.88849
rfingers 7.12502
rthumb 46.5856 -14.9581
lclavicle 4.77083e-015 -6.36111e-015
lhumerus 6.32868 -3.1397 96.4202
lradius 139.194
lwrist -14.2302
lhand 20.8046 39.2861
lfingers 7.12502
lthumb 45.2838 62.673
rfemur -19.3458 9.60332 26.8422
rtibia 35.91
rfoot -21.2952 5.56218
rtoes -18.2156
lfemur -19.0945 3.04246 -8.24168
ltibia 46.5234
lfoot -25.9001 9.35857
ltoes -19.3001
2560
root -0.0393144 16.6059 -1.58542 2.96358 -18.2323 -8.56163
lowerback 11.4274 -1.46222 -6.19957
upperback 9.7101 -2.43673 -4.48082
thorax 3.89456 -1.45936 -1.0386
lowerneck 10.9478 -16.0111 -30.1656
upperneck -14.6722 -23.857 26.7952
head 1.11139 -12.4366 12.2774
rclavicle -3.18055e-015 5.40694e-014
rhumerus 1.47592 21.0251 -91.2137
rradius 135.96
rwrist 28
rhand 22.4998 7.84603
rfingers 7.12502
rthumb 46.8563 -14.8832
lclavicle -3.18055e-015 5.40694e-014
lhumerus 6.71239 -3.25728 96.433
lradius 139.359
lwrist -13.8981
lhand 20.8442 39.3971
lfingers 7.12502
lthumb 45.3207 62.7692
rfemur -19.394 9.71531 27.184
rtibia 35.7696
rfoot -21.228 6.12001
rtoes -18.0894
lfemur -19.1013 3.32072 -7.88731
ltibia 46.6954
lfoot -25.9464 9.61481
ltoes -19.2762
2561
root -0.0406826 16.6014 -1.58994 3.0691 -18.912 -8.8797
lowerback 11.2731 -1.39694 -6.0753
upperback 9.72858 -2.32795 -4.67153
thorax 3.98105 -1.39578 -1.32161
lowerneck 11.2122 -16.0149 -30.1673
upperneck -14.7898 -23.9297 26.7695
head 1.05058 -12.4819 12.2922
rclavicle -5.725e-014 -4.13472e-014
rhumerus 1.50052 21.259 -91.2769
rradius 136.243
rwrist 27.5721
rhand 22.5155 7.58865
rfingers 7.12502
rthumb 46.8709 -15.1342
lclavicle -5.725e-014 -4.13472e-014
lhumerus 6.83345 -3.54416 96.2995
lradius 139.632
lwrist -13.6045
lhand 21.0171 39.5861
lfingers 7.12502
lthumb 45.4814 62.8935
rfemur -19.3627 9.92 27.5103
rtibia 35.6611
rfoot -21.1371 6.77567
rtoes -17.7503
lfemur -18.9539 3.67461 -7.56505
ltibia 46.8635
lfoot -26.063 9.89327
ltoes -19.727
2562
root -0.044028 16.5979 -1.59485 3.12117 -19.5636 -9.10551
lowerback 11.2007 -1.34278 -6.14848
upperback 9.73119 -2.25712 -4.85427
thorax 4.01912 -1.36102 -1.48109
lowerneck 11.3055 -16.0151 -30.2162
upperneck -14.7079 -23.9739 26.784
head 1.07887 -12.5095 12.2987
rclavicle -3.18055e-014 -4.77083e-014
rhumerus 1.49935 21.5879 -91.3862
rradius 136.511
rwrist 27.091
rhand 22.5096 7.22214
rfingers 7.12502
rthumb 46.8654 -15.5032
lclavicle -3.18055e-014 -4.77083e-014
lhumerus 6.88445 -3.81663 96.1558
lradius 139.84
lwrist -13.332
lhand 20.9989 39.7974
lfingers 7.12502
lthumb 45.4645 63.1117
rfemur -19.2956 10.2127 27.7487
rtibia 35.539
rfoot -21.0293 7.21333
rtoes -17.611
lfemur -18.786 3.99158 -7.33421
ltibia 47.0357
lfoot -26.3734 9.93317
ltoes -18.9056
2563
root -0.0443555 16.5938 -1.60232 3.20256 -20.0873 -9.22522
lowerback 11.2421 -1.31479 -6.31413
upperback 9.66663 -2.24225 -4.99948
thorax 3.93021 -1.35682 -1.53929
lowerneck 11.4234 -16.0307 -30.3626
upperneck -14.6525 -24.0561 26.8628
head 1.12859 -12.5573 12.3321
rclavicle -1.59028e-015 3.18055e-014
rhumerus 1.38213 21.9295 -91.4521
rradius 136.746
rwrist 26.5997
rhand 22.6041 7.10148
rfingers 7.12502
rthumb 46.9528 -15.5855
lclavicle -1.59028e-015 3.18055e-014
lhumerus 6.85919 -4.13403 96.0688
lradius 139.953
lwrist -13.0336
lhand 20.8602 39.8626
lfingers 7.12502
lthumb 45.3355 63.2288
rfemur -19.3084 10.424 27.8616
rtibia 35.4165
rfoot -20.9286 7.5494
rtoes -17.601
lfemur -18.7487 4.2222 -7.22692
ltibia 47.189
lfoot -26.6176 10.0163
ltoes -18.2693
2564
root -0.0426601 16.5872 -1.60961 3.39105 -20.5968 -9.61643
lowerback 11.2968 -1.26511 -6.18764
upperback 9.61373 -2.17879 -5.062
thorax 3.83281 -1.31541 -1.67523
lowerneck 11.5394 -16.0837 -30.4177
upperneck -14.6903 -24.1676 26.9454
head 1.15027 -12.6223 12.3542
rclavicle -3.02153e-014 -2.54444e-014
rhumerus 1.17589 22.1969 -91.4831
rradius 137.007
rwrist 26.0384
rhand 22.349 6.85098
rfingers 7.12502
rthumb 46.7167 -15.939
lclavicle -3.02153e-014 -2.54444e-014
lhumerus 6.90596 -4.49874 95.9657
lradius 139.959
lwrist -12.837
lhand 20.722 39.8341
lfingers 7.12502
lthumb 45.2071 63.2516
rfemur -19.325 10.6535 28.2433
rtibia 35.2624
rfoot -20.8423 7.92125
rtoes -17.533
lfemur -18.7322 4.48379 -6.82829
ltibia 47.3357
lfoot -26.7354 10.1917
ltoes -18.364
